{
    "asset" : {
        "generator" : "Khronos glTF Blender I/O v1.2.75",
        "version" : "2.0"
    },
    "scene" : 0,
    "scenes" : [
        {
            "name" : "Scene",
            "nodes" : [
                0,
                1,
                2,
                3
            ]
        }
    ],
    "nodes" : [
        {
            "mesh" : 0,
            "name" : "Fridge",
            "scale" : [
                1,
                2.243614673614502,
                1
            ],
            "translation" : [
                0,
                1,
                0
            ]
        },
        {
            "mesh" : 1,
            "name" : "Dragger",
            "translation" : [
                -4.4707722663879395,
                1.4027992486953735,
                1.1549813747406006
            ]
        },
        {
            "mesh" : 2,
            "name" : "Cylinder.001",
            "scale" : [
                1,
                2.0150933265686035,
                1
            ],
            "translation" : [
                -3.5094876289367676,
                1.4027992486953735,
                1.1549813747406006
            ]
        },
        {
            "mesh" : 3,
            "name" : "Search",
            "scale" : [
                0.31005391478538513,
                0.31005391478538513,
                0.31005391478538513
            ],
            "translation" : [
                -2.869272470474243,
                1.1293299198150635,
                1.1877171993255615
            ]
        }
    ],
    "materials" : [
        {
            "doubleSided" : true,
            "emissiveFactor" : [
                0,
                0,
                0
            ],
            "name" : "Material",
            "pbrMetallicRoughness" : {
                "baseColorFactor" : [
                    0.29440081119537354,
                    0.7472087144851685,
                    0.8000000715255737,
                    1
                ],
                "metallicFactor" : 0.5,
                "roughnessFactor" : 0.2762886583805084
            }
        },
        {
            "doubleSided" : true,
            "emissiveFactor" : [
                0.8999999761581421,
                1,
                1
            ],
            "name" : "Material.001",
            "pbrMetallicRoughness" : {}
        },
        {
            "doubleSided" : true,
            "emissiveFactor" : [
                0,
                0,
                0
            ],
            "name" : "Material.002",
            "pbrMetallicRoughness" : {
                "baseColorFactor" : [
                    0.800000011920929,
                    1,
                    1,
                    1
                ],
                "metallicFactor" : 0.20000000298023224,
                "roughnessFactor" : 0.30000001192092896
            }
        },
        {
            "doubleSided" : true,
            "emissiveFactor" : [
                0,
                0,
                0
            ],
            "name" : "blade",
            "pbrMetallicRoughness" : {
                "baseColorFactor" : [
                    0.47045496106147766,
                    0.47045496106147766,
                    0.47045496106147766,
                    1
                ],
                "metallicFactor" : 0,
                "roughnessFactor" : 0.20000000298023224
            }
        },
        {
            "doubleSided" : true,
            "emissiveFactor" : [
                0,
                0,
                0
            ],
            "name" : "sphere",
            "pbrMetallicRoughness" : {
                "baseColorFactor" : [
                    0.8000000715255737,
                    0.4812285602092743,
                    0.14174586534500122,
                    1
                ],
                "metallicFactor" : 0,
                "roughnessFactor" : 0.5
            }
        },
        {
            "doubleSided" : true,
            "emissiveFactor" : [
                0,
                0,
                0
            ],
            "name" : "handle",
            "pbrMetallicRoughness" : {
                "baseColorFactor" : [
                    0.010744798928499222,
                    0.36162975430488586,
                    0.23159341514110565,
                    1
                ],
                "metallicFactor" : 0,
                "roughnessFactor" : 0.5
            }
        },
        {
            "doubleSided" : true,
            "emissiveFactor" : [
                0,
                0,
                0
            ],
            "name" : "search_handle",
            "pbrMetallicRoughness" : {
                "baseColorFactor" : [
                    0.3032004237174988,
                    0.1486140489578247,
                    0.0019801026210188866,
                    1
                ],
                "metallicFactor" : 0,
                "roughnessFactor" : 0.5
            }
        },
        {
            "doubleSided" : true,
            "emissiveFactor" : [
                0,
                0,
                0
            ],
            "name" : "glass",
            "pbrMetallicRoughness" : {
                "baseColorFactor" : [
                    0.699999988079071,
                    0.800000011920929,
                    0.800000011920929,
                    1
                ],
                "metallicFactor" : 0,
                "roughnessFactor" : 0.5
            }
        },
        {
            "doubleSided" : true,
            "emissiveFactor" : [
                0,
                0,
                0
            ],
            "name" : "search",
            "pbrMetallicRoughness" : {
                "baseColorFactor" : [
                    0.8000000715255737,
                    0.6745357513427734,
                    0.22510652244091034,
                    1
                ],
                "metallicFactor" : 0,
                "roughnessFactor" : 0.5
            }
        }
    ],
    "meshes" : [
        {
            "name" : "Cube",
            "primitives" : [
                {
                    "attributes" : {
                        "POSITION" : 0,
                        "NORMAL" : 1,
                        "TEXCOORD_0" : 2
                    },
                    "indices" : 3,
                    "material" : 0
                },
                {
                    "attributes" : {
                        "POSITION" : 4,
                        "NORMAL" : 5,
                        "TEXCOORD_0" : 6
                    },
                    "indices" : 7,
                    "material" : 1
                },
                {
                    "attributes" : {
                        "POSITION" : 8,
                        "NORMAL" : 9,
                        "TEXCOORD_0" : 10
                    },
                    "indices" : 11,
                    "material" : 2
                }
            ]
        },
        {
            "name" : "Cylinder",
            "primitives" : [
                {
                    "attributes" : {
                        "POSITION" : 12,
                        "NORMAL" : 13,
                        "TEXCOORD_0" : 14
                    },
                    "indices" : 15,
                    "material" : 3
                },
                {
                    "attributes" : {
                        "POSITION" : 16,
                        "NORMAL" : 17,
                        "TEXCOORD_0" : 18
                    },
                    "indices" : 19,
                    "material" : 4
                },
                {
                    "attributes" : {
                        "POSITION" : 20,
                        "NORMAL" : 21,
                        "TEXCOORD_0" : 22
                    },
                    "indices" : 23,
                    "material" : 5
                }
            ]
        },
        {
            "name" : "Cylinder.002",
            "primitives" : [
                {
                    "attributes" : {
                        "POSITION" : 24,
                        "NORMAL" : 25,
                        "TEXCOORD_0" : 26
                    },
                    "indices" : 27
                }
            ]
        },
        {
            "name" : "Cylinder.003",
            "primitives" : [
                {
                    "attributes" : {
                        "POSITION" : 28,
                        "NORMAL" : 29,
                        "TEXCOORD_0" : 30
                    },
                    "indices" : 31,
                    "material" : 6
                },
                {
                    "attributes" : {
                        "POSITION" : 32,
                        "NORMAL" : 33,
                        "TEXCOORD_0" : 34
                    },
                    "indices" : 35,
                    "material" : 7
                },
                {
                    "attributes" : {
                        "POSITION" : 36,
                        "NORMAL" : 37,
                        "TEXCOORD_0" : 38
                    },
                    "indices" : 39,
                    "material" : 8
                }
            ]
        }
    ],
    "accessors" : [
        {
            "bufferView" : 0,
            "componentType" : 5126,
            "count" : 41313,
            "max" : [
                1.0000001192092896,
                0.9988147020339966,
                2.9921302795410156
            ],
            "min" : [
                -0.9955133199691772,
                -0.998805582523346,
                -1.0000001192092896
            ],
            "type" : "VEC3"
        },
        {
            "bufferView" : 1,
            "componentType" : 5126,
            "count" : 41313,
            "type" : "VEC3"
        },
        {
            "bufferView" : 2,
            "componentType" : 5126,
            "count" : 41313,
            "type" : "VEC2"
        },
        {
            "bufferView" : 3,
            "componentType" : 5123,
            "count" : 62622,
            "type" : "SCALAR"
        },
        {
            "bufferView" : 4,
            "componentType" : 5126,
            "count" : 256,
            "max" : [
                0.35836294293403625,
                0.960724949836731,
                0.49323052167892456
            ],
            "min" : [
                -0.43372252583503723,
                0.9607247114181519,
                -0.2294567972421646
            ],
            "type" : "VEC3"
        },
        {
            "bufferView" : 5,
            "componentType" : 5126,
            "count" : 256,
            "type" : "VEC3"
        },
        {
            "bufferView" : 6,
            "componentType" : 5126,
            "count" : 256,
            "type" : "VEC2"
        },
        {
            "bufferView" : 7,
            "componentType" : 5123,
            "count" : 384,
            "type" : "SCALAR"
        },
        {
            "bufferView" : 8,
            "componentType" : 5126,
            "count" : 285,
            "max" : [
                0.7868751883506775,
                0.7020105123519897,
                0.9186198711395264
            ],
            "min" : [
                -0.9559187889099121,
                0.1020546555519104,
                -0.8795392513275146
            ],
            "type" : "VEC3"
        },
        {
            "bufferView" : 9,
            "componentType" : 5126,
            "count" : 285,
            "type" : "VEC3"
        },
        {
            "bufferView" : 10,
            "componentType" : 5126,
            "count" : 285,
            "type" : "VEC2"
        },
        {
            "bufferView" : 11,
            "componentType" : 5123,
            "count" : 801,
            "type" : "SCALAR"
        },
        {
            "bufferView" : 12,
            "componentType" : 5126,
            "count" : 56,
            "max" : [
                0.13225531578063965,
                1.1629875898361206,
                0.016470320522785187
            ],
            "min" : [
                -0.13225531578063965,
                0.2590230107307434,
                -0.016470331698656082
            ],
            "type" : "VEC3"
        },
        {
            "bufferView" : 13,
            "componentType" : 5126,
            "count" : 56,
            "type" : "VEC3"
        },
        {
            "bufferView" : 14,
            "componentType" : 5126,
            "count" : 56,
            "type" : "VEC2"
        },
        {
            "bufferView" : 15,
            "componentType" : 5123,
            "count" : 72,
            "type" : "SCALAR"
        },
        {
            "bufferView" : 16,
            "componentType" : 5126,
            "count" : 132,
            "max" : [
                0.06999998539686203,
                -0.3342238664627075,
                0.06999997794628143
            ],
            "min" : [
                -0.06999998539686203,
                -0.40422385931015015,
                -0.07000000029802322
            ],
            "type" : "VEC3"
        },
        {
            "bufferView" : 17,
            "componentType" : 5126,
            "count" : 132,
            "type" : "VEC3"
        },
        {
            "bufferView" : 18,
            "componentType" : 5126,
            "count" : 132,
            "type" : "VEC2"
        },
        {
            "bufferView" : 19,
            "componentType" : 5123,
            "count" : 180,
            "type" : "SCALAR"
        },
        {
            "bufferView" : 20,
            "componentType" : 5126,
            "count" : 485,
            "max" : [
                0.35045677423477173,
                0.2590230107307434,
                0.10000000149011612
            ],
            "min" : [
                -0.35045674443244934,
                -0.34036144614219666,
                -0.10000000149011612
            ],
            "type" : "VEC3"
        },
        {
            "bufferView" : 21,
            "componentType" : 5126,
            "count" : 485,
            "type" : "VEC3"
        },
        {
            "bufferView" : 22,
            "componentType" : 5126,
            "count" : 485,
            "type" : "VEC2"
        },
        {
            "bufferView" : 23,
            "componentType" : 5123,
            "count" : 738,
            "type" : "SCALAR"
        },
        {
            "bufferView" : 24,
            "componentType" : 5126,
            "count" : 502,
            "max" : [
                0.25,
                0.12406373023986816,
                0.06374002248048782
            ],
            "min" : [
                -0.25,
                -0.12406373023986816,
                -1.06207114214385e-08
            ],
            "type" : "VEC3"
        },
        {
            "bufferView" : 25,
            "componentType" : 5126,
            "count" : 502,
            "type" : "VEC3"
        },
        {
            "bufferView" : 26,
            "componentType" : 5126,
            "count" : 502,
            "type" : "VEC2"
        },
        {
            "bufferView" : 27,
            "componentType" : 5123,
            "count" : 768,
            "type" : "SCALAR"
        },
        {
            "bufferView" : 28,
            "componentType" : 5126,
            "count" : 4160,
            "max" : [
                0.1906650811433792,
                0.1250000298023224,
                0.19075007736682892
            ],
            "min" : [
                -0.1906644105911255,
                -1.9047877788543701,
                -0.19075006246566772
            ],
            "type" : "VEC3"
        },
        {
            "bufferView" : 29,
            "componentType" : 5126,
            "count" : 4160,
            "type" : "VEC3"
        },
        {
            "bufferView" : 30,
            "componentType" : 5126,
            "count" : 4160,
            "type" : "VEC2"
        },
        {
            "bufferView" : 31,
            "componentType" : 5123,
            "count" : 6240,
            "type" : "SCALAR"
        },
        {
            "bufferView" : 32,
            "componentType" : 5126,
            "count" : 7680,
            "max" : [
                0.6127299666404724,
                1.516142725944519,
                0.13263775408267975
            ],
            "min" : [
                -0.6127299666404724,
                0.24786785244941711,
                -0.13704189658164978
            ],
            "type" : "VEC3"
        },
        {
            "bufferView" : 33,
            "componentType" : 5126,
            "count" : 7680,
            "type" : "VEC3"
        },
        {
            "bufferView" : 34,
            "componentType" : 5126,
            "count" : 7680,
            "type" : "VEC2"
        },
        {
            "bufferView" : 35,
            "componentType" : 5123,
            "count" : 11520,
            "type" : "SCALAR"
        },
        {
            "bufferView" : 36,
            "componentType" : 5126,
            "count" : 8192,
            "max" : [
                0.7850034832954407,
                1.6669421195983887,
                0.09936168789863586
            ],
            "min" : [
                -0.7850053906440735,
                0.09706926345825195,
                -0.1049465611577034
            ],
            "type" : "VEC3"
        },
        {
            "bufferView" : 37,
            "componentType" : 5126,
            "count" : 8192,
            "type" : "VEC3"
        },
        {
            "bufferView" : 38,
            "componentType" : 5126,
            "count" : 8192,
            "type" : "VEC2"
        },
        {
            "bufferView" : 39,
            "componentType" : 5123,
            "count" : 12288,
            "type" : "SCALAR"
        }
    ],
    "bufferViews" : [
        {
            "buffer" : 0,
            "byteLength" : 495756,
            "byteOffset" : 0
        },
        {
            "buffer" : 0,
            "byteLength" : 495756,
            "byteOffset" : 495756
        },
        {
            "buffer" : 0,
            "byteLength" : 330504,
            "byteOffset" : 991512
        },
        {
            "buffer" : 0,
            "byteLength" : 125244,
            "byteOffset" : 1322016
        },
        {
            "buffer" : 0,
            "byteLength" : 3072,
            "byteOffset" : 1447260
        },
        {
            "buffer" : 0,
            "byteLength" : 3072,
            "byteOffset" : 1450332
        },
        {
            "buffer" : 0,
            "byteLength" : 2048,
            "byteOffset" : 1453404
        },
        {
            "buffer" : 0,
            "byteLength" : 768,
            "byteOffset" : 1455452
        },
        {
            "buffer" : 0,
            "byteLength" : 3420,
            "byteOffset" : 1456220
        },
        {
            "buffer" : 0,
            "byteLength" : 3420,
            "byteOffset" : 1459640
        },
        {
            "buffer" : 0,
            "byteLength" : 2280,
            "byteOffset" : 1463060
        },
        {
            "buffer" : 0,
            "byteLength" : 1602,
            "byteOffset" : 1465340
        },
        {
            "buffer" : 0,
            "byteLength" : 672,
            "byteOffset" : 1466944
        },
        {
            "buffer" : 0,
            "byteLength" : 672,
            "byteOffset" : 1467616
        },
        {
            "buffer" : 0,
            "byteLength" : 448,
            "byteOffset" : 1468288
        },
        {
            "buffer" : 0,
            "byteLength" : 144,
            "byteOffset" : 1468736
        },
        {
            "buffer" : 0,
            "byteLength" : 1584,
            "byteOffset" : 1468880
        },
        {
            "buffer" : 0,
            "byteLength" : 1584,
            "byteOffset" : 1470464
        },
        {
            "buffer" : 0,
            "byteLength" : 1056,
            "byteOffset" : 1472048
        },
        {
            "buffer" : 0,
            "byteLength" : 360,
            "byteOffset" : 1473104
        },
        {
            "buffer" : 0,
            "byteLength" : 5820,
            "byteOffset" : 1473464
        },
        {
            "buffer" : 0,
            "byteLength" : 5820,
            "byteOffset" : 1479284
        },
        {
            "buffer" : 0,
            "byteLength" : 3880,
            "byteOffset" : 1485104
        },
        {
            "buffer" : 0,
            "byteLength" : 1476,
            "byteOffset" : 1488984
        },
        {
            "buffer" : 0,
            "byteLength" : 6024,
            "byteOffset" : 1490460
        },
        {
            "buffer" : 0,
            "byteLength" : 6024,
            "byteOffset" : 1496484
        },
        {
            "buffer" : 0,
            "byteLength" : 4016,
            "byteOffset" : 1502508
        },
        {
            "buffer" : 0,
            "byteLength" : 1536,
            "byteOffset" : 1506524
        },
        {
            "buffer" : 0,
            "byteLength" : 49920,
            "byteOffset" : 1508060
        },
        {
            "buffer" : 0,
            "byteLength" : 49920,
            "byteOffset" : 1557980
        },
        {
            "buffer" : 0,
            "byteLength" : 33280,
            "byteOffset" : 1607900
        },
        {
            "buffer" : 0,
            "byteLength" : 12480,
            "byteOffset" : 1641180
        },
        {
            "buffer" : 0,
            "byteLength" : 92160,
            "byteOffset" : 1653660
        },
        {
            "buffer" : 0,
            "byteLength" : 92160,
            "byteOffset" : 1745820
        },
        {
            "buffer" : 0,
            "byteLength" : 61440,
            "byteOffset" : 1837980
        },
        {
            "buffer" : 0,
            "byteLength" : 23040,
            "byteOffset" : 1899420
        },
        {
            "buffer" : 0,
            "byteLength" : 98304,
            "byteOffset" : 1922460
        },
        {
            "buffer" : 0,
            "byteLength" : 98304,
            "byteOffset" : 2020764
        },
        {
            "buffer" : 0,
            "byteLength" : 65536,
            "byteOffset" : 2119068
        },
        {
            "buffer" : 0,
            "byteLength" : 24576,
            "byteOffset" : 2184604
        }
    ],
    "buffers" : [
        {
            "byteLength" : 2209180,
            "uri" : "data:application/octet-stream;base64,"
        }
    ]
}
